<?xml version="1.0" standalone="no"?>
<!DOCTYPE svg PUBLIC "-//W3C//DTD SVG 20010904//EN"
 "http://www.w3.org/TR/2001/REC-SVG-20010904/DTD/svg10.dtd">
<svg version="1.0" xmlns="http://www.w3.org/2000/svg"
 width="260.000000pt" height="260.000000pt" viewBox="0 0 260.000000 260.000000"
 preserveAspectRatio="xMidYMid meet">
<metadata>
Created by potrace 1.14, written by Peter Selinger 2001-2017
</metadata>
<g transform="translate(0.000000,260.000000) scale(0.100000,-0.100000)"
fill="#000000" stroke="none">
<path d="M2590 1305 l0 -1295 -452 -3 -453 -2 458 -3 457 -2 0 1300 c0 715 -2
1300 -5 1300 -3 0 -5 -583 -5 -1295z"/>
<path d="M1360 2275 l0 -65 30 0 30 0 0 -95 0 -95 100 0 100 0 0 30 c0 27 3
30 30 30 l30 0 0 95 0 95 -30 0 c-28 0 -30 3 -30 35 0 33 -2 35 -35 35 -33 0
-35 -2 -35 -35 0 -32 -2 -35 -30 -35 -28 0 -30 3 -30 35 l0 35 -65 0 -65 0 0
-65z m260 -160 c0 -33 -2 -35 -35 -35 -32 0 -35 3 -35 28 0 16 3 32 7 35 3 4
19 7 35 7 25 0 28 -3 28 -35z"/>
<path d="M2340 2310 c0 -27 3 -30 30 -30 27 0 30 3 30 30 0 27 -3 30 -30 30
-27 0 -30 -3 -30 -30z"/>
<path d="M970 2115 l0 -95 30 0 c28 0 30 -3 30 -35 0 -33 2 -35 35 -35 32 0
35 -2 35 -30 0 -28 -3 -30 -35 -30 l-35 0 0 -65 0 -65 -95 0 -95 0 0 -71 0
-70 -32 3 c-29 3 -33 7 -36 36 l-3 32 -130 0 -130 0 3 -32 c3 -29 7 -33 36
-36 28 -3 32 -7 32 -33 l0 -29 65 0 65 0 0 -30 c0 -27 3 -30 30 -30 28 0 30
-3 30 -35 0 -32 -2 -35 -30 -35 -27 0 -30 -3 -30 -30 0 -28 -3 -30 -35 -30
l-35 0 0 -230 0 -230 35 0 35 0 0 -130 0 -130 30 0 30 0 0 -225 0 -225 65 0
65 0 0 -65 0 -65 -65 0 -65 0 0 -35 0 -35 165 0 165 0 0 35 0 35 95 0 95 0 0
-35 0 -35 165 0 165 0 0 65 0 65 -65 0 -65 0 0 100 0 100 -35 0 c-32 0 -35 2
-35 30 0 27 -3 30 -30 30 l-30 0 0 230 0 230 30 0 c27 0 30 3 30 30 l0 30 100
0 100 0 0 -30 c0 -27 3 -30 30 -30 28 0 30 -3 30 -35 0 -33 2 -35 35 -35 32 0
35 -2 35 -30 0 -27 3 -30 30 -30 l30 0 0 65 0 65 -30 0 c-27 0 -30 3 -30 29 0
26 -4 30 -32 33 -29 3 -33 7 -36 36 -3 28 -7 32 -33 32 -26 0 -29 3 -29 30 0
28 -3 30 -35 30 -33 0 -35 2 -35 35 0 32 -2 35 -30 35 -27 0 -30 3 -30 30 l0
30 65 0 65 0 0 -30 0 -30 325 0 325 0 0 30 0 30 65 0 65 0 0 35 0 35 65 0 65
0 0 65 0 65 -35 0 -35 0 0 65 0 65 -30 0 c-27 0 -30 3 -30 30 l0 30 -165 0
-165 0 0 35 c0 32 -2 35 -30 35 -27 0 -30 3 -30 30 0 28 -3 30 -35 30 -33 0
-35 2 -35 35 0 33 2 35 35 35 32 0 35 2 35 30 0 28 -3 30 -35 30 -33 0 -35 2
-35 35 l0 35 -160 0 -160 0 0 30 0 30 -230 0 -230 0 0 100 0 100 -30 0 c-27 0
-30 3 -30 30 l0 30 -65 0 -65 0 0 -95z m390 -360 l0 -65 -100 0 -100 0 0 65 0
65 100 0 100 0 0 -65z m320 -95 c0 -27 -3 -30 -30 -30 -28 0 -30 -3 -30 -35 0
-33 -2 -35 -35 -35 l-35 0 0 65 0 65 65 0 65 0 0 -30z m200 0 c0 -28 -3 -30
-35 -30 -32 0 -35 2 -35 30 0 28 3 30 35 30 32 0 35 -2 35 -30z m-520 -225 l0
-65 -65 0 -65 0 0 65 0 65 65 0 65 0 0 -65z m650 30 c0 -33 -2 -35 -35 -35
-32 0 -35 -2 -35 -30 l0 -30 -130 0 -130 0 0 58 c0 32 3 62 7 65 3 4 78 7 165
7 l158 0 0 -35z m-1040 -195 c0 -28 -3 -30 -35 -30 -33 0 -35 -2 -35 -35 0
-32 -2 -35 -30 -35 -28 0 -30 3 -30 35 0 33 -2 35 -35 35 -32 0 -35 2 -35 30
l0 30 100 0 100 0 0 -30z m1360 0 c0 -27 -3 -30 -30 -30 -28 0 -30 -3 -30 -36
0 -34 -1 -35 -32 -32 -33 3 -33 3 -36 66 l-3 62 66 0 65 0 0 -30z m-910 -130
c0 -27 -3 -30 -30 -30 -28 0 -30 -3 -30 -35 l0 -35 -130 0 -130 0 0 65 0 65
160 0 160 0 0 -30z m-320 -420 l0 -130 -65 0 -65 0 0 65 0 65 30 0 c27 0 30 3
30 30 0 27 -3 30 -30 30 -28 0 -30 3 -30 35 l0 35 65 0 65 0 0 -130z m190
-195 l0 -65 -30 0 -30 0 0 65 0 65 30 0 30 0 0 -65z m-260 -130 l0 -65 -30 0
c-27 0 -30 3 -30 29 0 26 -4 30 -32 33 -29 3 -33 7 -36 36 l-3 32 65 0 66 0 0
-65z m390 -165 c0 -27 -3 -30 -30 -30 -28 0 -30 -3 -30 -35 l0 -35 -65 0 -65
0 0 35 c0 32 2 35 30 35 27 0 30 3 30 30 l0 30 65 0 65 0 0 -30z"/>
<path d="M2400 1955 l0 -65 30 0 30 0 0 65 0 65 -30 0 -30 0 0 -65z"/>
<path d="M2340 1725 c0 -32 2 -35 30 -35 28 0 30 3 30 35 0 32 -2 35 -30 35
-28 0 -30 -3 -30 -35z"/>
<path d="M2340 1040 l0 -60 30 0 30 0 0 60 0 60 -30 0 -30 0 0 -60z"/>
<path d="M2210 915 l0 -65 30 0 30 0 0 65 0 65 -30 0 -30 0 0 -65z"/>
<path d="M2080 815 c0 -32 2 -35 30 -35 28 0 30 3 30 35 0 32 -2 35 -30 35
-28 0 -30 -3 -30 -35z"/>
<path d="M157 3 c90 -2 236 -2 325 0 90 1 17 3 -162 3 -179 0 -252 -2 -163 -3z"/>
</g>
</svg>
